<?xml version="1.0" encoding="UTF-8" standalone="no"?>
<svg width="24px" height="26px" viewBox="0 0 24 26" version="1.1" xmlns="http://www.w3.org/2000/svg" xmlns:xlink="http://www.w3.org/1999/xlink" xmlns:sketch="http://www.bohemiancoding.com/sketch/ns">
    <!-- Generator: Sketch 3.4.1 (15681) - http://www.bohemiancoding.com/sketch -->
    <title>trash</title>
    <desc>Created with Sketch.</desc>
    <defs>
        <path id="path-1" d="M0,0.28568 L23.57146,0.28568 L23.57146,26 L0,26 L0,0.28568 Z"></path>
    </defs>
    <g id="Page-1" stroke="none" stroke-width="1" fill="none" fill-rule="evenodd" sketch:type="MSPage">
        <g id="iPhone-6" sketch:type="MSArtboardGroup" transform="translate(-337.000000, -31.000000)">
            <g id="Action-button" sketch:type="MSLayerGroup" transform="translate(0.000000, 15.000000)">
                <g id="trash" transform="translate(337.000000, 16.000000)">
                    <mask id="mask-2" sketch:name="Clip 2" fill="white">
                        <use xlink:href="#path-1"></use>
                    </mask>
                    <g id="Clip-2"></g>
                    <path d="M8.571439,21.178568 C8.571439,21.479908 8.337064,21.714283 8.035724,21.714283 L6.964294,21.714283 C6.662954,21.714283 6.428579,21.479908 6.428579,21.178568 L6.428579,9.39284 C6.428579,9.0915 6.662954,8.85713 6.964294,8.85713 L8.035724,8.85713 C8.337064,8.85713 8.571439,9.0915 8.571439,9.39284 L8.571439,21.178568 Z M12.85716,21.178568 C12.85716,21.479908 12.62278,21.714283 12.32144,21.714283 L11.25001,21.714283 C10.94867,21.714283 10.7143,21.479908 10.7143,21.178568 L10.7143,9.39284 C10.7143,9.0915 10.94867,8.85713 11.25001,8.85713 L12.32144,8.85713 C12.62278,8.85713 12.85716,9.0915 12.85716,9.39284 L12.85716,21.178568 Z M17.14288,21.178568 C17.14288,21.479908 16.9085,21.714283 16.60716,21.714283 L15.53573,21.714283 C15.23439,21.714283 15.00002,21.479908 15.00002,21.178568 L15.00002,9.39284 C15.00002,9.0915 15.23439,8.85713 15.53573,8.85713 L16.60716,8.85713 C16.9085,8.85713 17.14288,9.0915 17.14288,9.39284 L17.14288,21.178568 Z M8.035724,4.57141 L8.856037,2.6127 C8.906261,2.54573 9.040189,2.44529 9.140636,2.42854 L14.44756,2.42854 C14.53127,2.44529 14.68194,2.54573 14.73216,2.6127 L15.53573,4.57141 L8.035724,4.57141 Z M23.57146,5.10712 C23.57146,4.80578 23.33708,4.57141 23.03574,4.57141 L17.86275,4.57141 L16.69087,1.77564 C16.35605,0.95533 15.35158,0.28568 14.4643,0.28568 L9.107154,0.28568 C8.219876,0.28568 7.21541,0.95533 6.880589,1.77564 L5.708712,4.57141 L0.535715,4.57141 C0.234375,4.57141 0,4.80578 0,5.10712 L0,6.17855 C0,6.47989 0.234375,6.71427 0.535715,6.71427 L2.14286,6.71427 L2.14286,22.651783 C2.14286,24.493303 3.348218,26.0000019 4.821434,26.0000019 L18.75002,26.0000019 C20.22324,26.0000019 21.4286,24.42634 21.4286,22.58482 L21.4286,6.71427 L23.03574,6.71427 C23.33708,6.71427 23.57146,6.47989 23.57146,6.17855 L23.57146,5.10712 Z" id="Fill-1" fill-opacity="0.75" fill="#FFFFFF" sketch:type="MSShapeGroup" mask="url(#mask-2)"></path>
                </g>
            </g>
        </g>
    </g>
</svg>